<?xml version="1.0" encoding="utf-8"?>
<!-- Generator: Adobe Illustrator 22.0.1, SVG Export Plug-In . SVG Version: 6.00 Build 0)  -->
<svg version="1.1" id="Layer_1" xmlns="http://www.w3.org/2000/svg" xmlns:xlink="http://www.w3.org/1999/xlink" x="0px" y="0px"
	 viewBox="0 0 259.3 63" style="enable-background:new 0 0 259.3 63;" xml:space="preserve">
<style type="text/css">
	.st0{fill:#83B81A;}
</style>
<g>
	<g>
		<g>
			<path class="st0" d="M194,61.8c-1,0-1.6-0.2-2-0.7c-0.4-0.4-0.4-0.9-0.2-1.6L202.3,23c4.2-14.5,16.4-21.9,36.6-21.9
				c6.3,0,10.1,0.1,11.2,0.2c4.3,0.3,5.3,1.2,6.2,2.5c0.5,0.8,0.6,1.7,0.2,2.7l-1.9,5.3c-0.6,1.7-1.9,1.9-2.6,1.9
				c-0.1,0-0.2,0-0.3,0c-3.5-0.1-9.1-0.2-16.5-0.2c-8.2,0-12.8,2.5-14.3,7.6l-11.1,38.6c-0.3,0.9-1.1,2.1-3.3,2.1L194,61.8L194,61.8
				z"/>
			<path class="st0" d="M20.3,13.7c-1.2,0-1.7-0.5-1.4-1.5l1.6-5.3c0.8-2.7,3.2-4.3,7.1-4.8c5.1-0.7,13.4-1,25.1-1
				c22.2,0,31,7.2,26.5,21.7L69,55.1c-0.9,2.9-3.2,4.1-7.7,4.8c-7.8,1.3-17.5,2-29,2c-23.1,0-32.8-6.1-28.9-18.4
				C6.2,34.6,16.6,29,34.6,26.7c6.4-0.8,15.1-2.1,25.9-3.9c1.3-0.3,2.2-1.1,2.6-2.4c1.8-5.7-3-8.7-14.6-8.7c-3.9,0-9.9,0.3-17.9,1
				C24.8,13.2,21.2,13.5,20.3,13.7L20.3,13.7z M53.9,50.3l5.4-17.4l-29,3.9c-5.6,0.8-8.9,3-10.1,6.7c-1.6,5.2,4,7.7,16.7,7.7
				C44.3,51.2,49.9,50.9,53.9,50.3z"/>
			<path class="st0" d="M137.2,11.6l-0.1-1.1l-0.5-4.1c-0.4-2.7-2.3-4.3-6.1-4.8c-3.4-0.2-5.9-0.4-9.5-0.4c-0.1,0-0.1,0-0.2,0
				c-24.2,0-39.3,9.9-45.4,29.4C68.8,51.4,77.8,62,102.1,62c8.5,0,16.6-0.3,20.4-0.9c4-0.7,6-1.6,6.9-4.6l1.1-5.3
				c0.2-1.3,0-1.9-0.7-1.9l-6.8,0.4c-4.6,0.4-10.6,0.7-14.3,0.7c-9.1,0-14.7-1.5-16.8-4.6c-1.9-2.7-1.8-7.8,0.5-15.2
				c3.8-12.2,13.1-17.8,28.1-17.8c7.7,0,15.3,0.8,15.3,0.8l0,0C136.8,13.6,137.3,12.5,137.2,11.6z"/>
			<path class="st0" d="M204.6,18.5c-3,9.7-13,15.7-29.9,17.9l-30.3,3.9c-0.2,4.4,1.6,7.2,5.4,8.7c2.6,0.9,7.2,1.4,14,1.4
				c3.6,0,8.6-0.2,15-0.5l9.6-0.4c1.2,0,1.7,0.4,1.4,1.5l-1.8,5.8c0,0.3-0.1,0.6-0.2,0.8c-0.4,1.5-1.8,2.6-3.8,3.2
				c-2.5,0.8-11.2,1.2-26.2,1.2c-25.2,0-34.7-10.3-28.3-30.9c6.1-19.9,21.6-29.9,46.4-29.9C198.6,1.1,208.2,6.9,204.6,18.5z M188,19
				c1.5-4.8-3.2-7.2-14.1-7.2c-8.3,0-14.3,1.2-17.9,3.5c-3.7,2.3-6.5,6.8-8.5,13.3l-0.6,2l24.2-3.4C181.1,25.7,186.8,23,188,19z"/>
		</g>
	</g>
</g>
</svg>
