<?xml version="1.0" encoding="utf-8"?>
<!-- Generator: Adobe Illustrator 22.1.0, SVG Export Plug-In . SVG Version: 6.00 Build 0)  -->
<svg version="1.1" id="Layer_1" xmlns="http://www.w3.org/2000/svg" xmlns:xlink="http://www.w3.org/1999/xlink" x="0px" y="0px"
	 viewBox="0 0 314 115.6" style="enable-background:new 0 0 314 115.6;" xml:space="preserve">
<style type="text/css">
	.st0{fill:#FFDD00;}
	.st1{fill-rule:evenodd;clip-rule:evenodd;}
	.st2{fill:none;}
</style>
<g>
	<path id="XMLID_160_" class="st0" d="M288.9,109.4H24.3c-9.8,0-17.7-7.9-17.7-17.7V25c0-9.8,7.9-17.7,17.7-17.7h264.6
		c9.8,0,17.7,7.9,17.7,17.7v66.7C306.6,101.5,298.7,109.4,288.9,109.4z"/>
	<g>
		<g>
			<path d="M154.5,47.1c0-1.7,0-4.9,14.5-4.9c0.5,0,0.9,0.4,0.9,0.9v2c0,0.5-0.4,0.9-0.9,0.9c-7,0-7,1.7-7,2.4v15.4
				c0,0.5-0.4,0.9-0.9,0.9h-5.8c-0.5,0-0.9-0.4-0.9-0.9V47.1"/>
			<path class="st1" d="M112.3,47.1v13.1c0,1.7,0,4.9-14.5,4.9c-14.5,0-14.5-3.2-14.5-4.9v-3.8c0-1.7,0-4.9,14.5-4.9
				c2.8,0,5.1,0.1,7,0.3v-3.5c0-0.7,0-2.4-7-2.4c-6.4,0-6.4,1.7-6.4,2.4c0,0.5-0.4,0.9-0.9,0.9h-5.8c-0.5,0-0.9-0.4-0.9-0.9v-1.2
				c0-1.7,0-4.9,14-4.9C112.3,42.2,112.3,45.5,112.3,47.1 M90.9,59c0,0.7,0,2.4,7,2.4c7,0,7-1.7,7-2.4v-1.3c0-0.7,0-2.4-7-2.4
				c-7,0-7,1.7-7,2.4V59z"/>
			<path class="st1" d="M118.9,33.8c0-0.5,0.4-0.9,0.9-0.9h5.8c0.5,0,0.9,0.4,0.9,0.9v8.8c1.8-0.2,4.1-0.3,7-0.3
				c14.5,0,14.5,3.2,14.5,4.9v13.1c0,1.7,0,4.9-14.5,4.9c-14.5,0-14.5-3.2-14.5-4.9V33.8 M126.5,59c0,0.7,0,2.4,7,2.4
				c7,0,7-1.7,7-2.4V48.3c0-0.7,0-2.4-7-2.4c-7,0-7,1.7-7,2.4V59z"/>
			<path class="st1" d="M201.3,47.1v13.1c0,1.7,0,4.9-14.5,4.9c-14.5,0-14.5-3.2-14.5-4.9v-3.8c0-1.7,0-4.9,14.5-4.9
				c2.8,0,5.1,0.1,7,0.3v-3.5c0-0.7,0-2.4-7-2.4c-6.4,0-6.4,1.7-6.4,2.4c0,0.5-0.4,0.9-0.9,0.9h-5.8c-0.5,0-0.9-0.4-0.9-0.9v-1.2
				c0-1.7,0-4.9,14-4.9C201.3,42.2,201.3,45.5,201.3,47.1 M179.8,59c0,0.7,0,2.4,7,2.4c7,0,7-1.7,7-2.4v-1.3c0-0.7,0-2.4-7-2.4
				c-7,0-7,1.7-7,2.4V59z"/>
			<path d="M77,60.3c0,1.7,0,4.9-14.5,4.9C48,65.2,48,61.9,48,60.3V58c0-0.5,0.4-0.9,0.9-0.9h5.8c0.5,0,0.9,0.4,0.9,0.9v1.1
				c0,0.7,0.3,2.3,7,2.3c7,0,7-1.7,7-2.4V33.8c0-0.5,0.4-0.9,0.9-0.9h5.8c0.5,0,0.9,0.4,0.9,0.9L77,60.3"/>
		</g>
		<g>
			<path id="XMLID_159_" d="M49.9,83.9h-0.5c-0.8,0-1.4-0.6-1.4-1.4v-3.7c0-0.8,0.6-1.4,1.4-1.4h0.5c0.8,0,1.4,0.6,1.4,1.4v3.7
				C51.3,83.3,50.6,83.9,49.9,83.9z"/>
			<path id="XMLID_158_" d="M60.5,83.9H60c-0.8,0-1.5-0.7-1.5-1.5V79c0-0.8,0.7-1.5,1.5-1.5h0.5c0.8,0,1.5,0.7,1.5,1.5v3.3
				C62,83.2,61.3,83.9,60.5,83.9z"/>
			<path id="XMLID_157_" d="M71.2,83.9h-0.8c-0.9,0-1.6-0.7-1.6-1.6v-3.2c0-0.9,0.7-1.6,1.6-1.6h0.8c0.9,0,1.6,0.7,1.6,1.6v3.2
				C72.8,83.2,72.1,83.9,71.2,83.9z"/>
			<path id="XMLID_156_" d="M81.9,83.9h-1.1c-0.9,0-1.7-0.7-1.7-1.7v-3.1c0-0.9,0.7-1.7,1.7-1.7h1.1c0.9,0,1.7,0.7,1.7,1.7v3.1
				C83.6,83.1,82.8,83.9,81.9,83.9z"/>
			<path id="XMLID_155_" d="M92.6,83.9h-1.3c-1,0-1.7-0.8-1.7-1.7v-2.9c0-1,0.8-1.7,1.7-1.7h1.3c1,0,1.7,0.8,1.7,1.7v2.9
				C94.3,83.1,93.6,83.9,92.6,83.9z"/>
			<path id="XMLID_154_" d="M103.3,83.9h-1.6c-1,0-1.8-0.8-1.8-1.8v-2.8c0-1,0.8-1.8,1.8-1.8h1.6c1,0,1.8,0.8,1.8,1.8v2.8
				C105.1,83.1,104.3,83.9,103.3,83.9z"/>
			<path id="XMLID_153_" d="M114,83.9h-1.8c-1,0-1.9-0.8-1.9-1.9v-2.6c0-1,0.8-1.9,1.9-1.9h1.8c1,0,1.9,0.8,1.9,1.9V82
				C115.9,83,115,83.9,114,83.9z"/>
			<path id="XMLID_152_" d="M124.7,83.9h-2.1c-1.1,0-1.9-0.9-1.9-1.9v-2.5c0-1.1,0.9-1.9,1.9-1.9h2.1c1.1,0,1.9,0.9,1.9,1.9v2.5
				C126.7,83,125.8,83.9,124.7,83.9z"/>
			<path id="XMLID_151_" d="M135.4,83.9H133c-1.1,0-2-0.9-2-2v-2.4c0-1.1,0.9-2,2-2h2.4c1.1,0,2,0.9,2,2v2.4
				C137.4,83,136.5,83.9,135.4,83.9z"/>
			<path id="XMLID_150_" d="M146.1,83.9h-2.6c-1.1,0-2.1-0.9-2.1-2.1v-2.2c0-1.1,0.9-2.1,2.1-2.1h2.6c1.1,0,2.1,0.9,2.1,2.1v2.2
				C148.2,83,147.3,83.9,146.1,83.9z"/>
			<path id="XMLID_149_" d="M156.8,83.9H154c-1.2,0-2.1-1-2.1-2.1v-2.1c0-1.2,1-2.1,2.1-2.1h2.9c1.2,0,2.1,1,2.1,2.1v2.1
				C159,82.9,158,83.9,156.8,83.9z"/>
			<path id="XMLID_148_" d="M236.5,83.9h-71.6c-1.5,0-2.7-1.2-2.7-2.7v-0.9c0-1.5,1.2-2.7,2.7-2.7h71.6c1.5,0,2.7,1.2,2.7,2.7v0.9
				C239.2,82.7,238,83.9,236.5,83.9z"/>
		</g>
		<g>
			<g id="XMLID_146_">
				<path id="XMLID_147_" d="M263.2,54.9c-0.5,0-1-0.2-1.3-0.5l-14.7-14.7c-0.2-0.2-0.6-0.1-0.6,0.2V53c0,1-0.8,1.9-1.8,1.9
					c-1,0-1.9-0.8-1.9-1.8V34.7c0-0.6,0.3-1.3,0.9-1.6c0.7-0.5,1.7-0.3,2.3,0.3L260.7,48c0.2,0.2,0.6,0.1,0.6-0.2V34.7
					c0-1,0.8-1.9,1.8-1.9c1,0,1.9,0.8,1.9,1.8l0,18.4c0,0.7-0.3,1.3-0.9,1.6C263.8,54.8,263.5,54.9,263.2,54.9z"/>
			</g>
			<path id="XMLID_145_" d="M237.4,42h-5.5c-1,0-1.9,0.8-1.9,1.8c0,1,0.8,1.9,1.8,1.9l3.2,0l0,0c0.3,0,0.5,0.2,0.5,0.5v0l0,4.6l0,0
				c0,0.3-0.2,0.5-0.5,0.5l0,0h-6.8c-4.3,0-7.7-3.5-7.5-7.8c0.2-3.9,3.4-7,7.4-7l9.2,0c1,0,1.9-0.8,1.9-1.8c0-1-0.8-1.9-1.8-1.9
				h-9.1c-5.9,0-10.9,4.6-11.2,10.5c-0.3,6.3,4.8,11.6,11,11.6h9.2c1,0,1.8-0.8,1.8-1.8v-9.2C239.2,42.8,238.4,42,237.4,42z"/>
		</g>
	</g>
</g>
<rect x="-25.5" y="-391.2" class="st2" width="300" height="130.9"/>
</svg>
