<svg id="Layer_1" data-name="Layer 1" xmlns="http://www.w3.org/2000/svg" viewBox="0 0 100 15.43"><title>brands_samsung_062118</title><path d="M152.09,21.36v9c0,1.13,0,2.26,0,3.36,0,.29-.09.38-.36.35-.95,0-1.87,0-2.82,0-.33,0-.41-.09-.41-.41.05-2.17.08-4.37.11-6.54s.09-4.48.15-6.74c0-.68,0-.68.69-.68h4.72c.36,0,.5.09.56.47.42,2.76.89,5.53,1.34,8.29.12.71.24,1.43.42,2.14.12-.77.26-1.55.38-2.32.45-2.73.89-5.49,1.31-8.23,0-.26.15-.32.39-.32h5.16c.3,0,.36.08.36.35.06,3.83.15,7.67.24,11.5,0,.71,0,1.39.06,2.11,0,.27-.06.38-.36.38-1,0-1.93,0-2.91,0-.33,0-.33-.14-.33-.38,0-2.5,0-5-.06-7.49,0-1.6,0-3.21-.11-4.84-.21,1.1-.42,2.23-.63,3.33-.53,3-1.1,5.91-1.63,8.88-.06.39-.21.5-.63.47q-1.38,0-2.76,0c-.3,0-.38-.08-.44-.38-.72-3.92-1.46-7.87-2.2-11.8,0-.17-.09-.38-.12-.56C152.15,21.36,152.12,21.36,152.09,21.36Z" transform="translate(-121.31 -19.29)"/><path d="M198.79,24.39c0,2.94.09,5.91.12,8.85,0,.69,0,.69-.66.69h-2.52c-.27,0-.36-.06-.36-.36V20.08c0-.27.06-.35.36-.35,1.51,0,3.06,0,4.57,0,.33,0,.45.08.54.41,1,3.51,2,7,3.09,10.55a1.33,1.33,0,0,0,.09.24v-3.6c0-1.75-.06-3.5-.09-5.29,0-.65,0-1.3,0-2,0-.29.09-.35.35-.35.95,0,1.91,0,2.89,0,.26,0,.32.08.32.32V33.6c0,.3-.12.33-.35.33h-4.43c-.3,0-.39-.12-.48-.39q-1.63-5.43-3.32-10.9c-.12-.12-.12,0-.12.09v.14Z" transform="translate(-121.31 -19.29)"/><path d="M211.18,26.91c0-1.21-.06-2.4,0-3.62a3.63,3.63,0,0,1,3.06-3.71,8.33,8.33,0,0,1,4.12,0,3.6,3.6,0,0,1,2.95,3.74c0,1,0,1-1,1H218c-.27,0-.39-.06-.36-.36a3.08,3.08,0,0,0,0-.74,1.35,1.35,0,0,0-1.42-1.31,1.28,1.28,0,0,0-1.43,1.28c-.06,1,0,2,0,3v4a1.41,1.41,0,0,0,1.84,1.52,1.29,1.29,0,0,0,1.13-1.28v-2c0-.27-.09-.3-.33-.3s-.83.18-1.07-.06-.05-.74-.08-1.1c0-.92,0-.92.89-.92h3.71c.33,0,.48,0,.45.42-.06,1.51.08,3-.09,4.51A3.32,3.32,0,0,1,219,33.87a7.67,7.67,0,0,1-5.56,0,3.4,3.4,0,0,1-2.28-3.24c0-1.22,0-2.47,0-3.72Z" transform="translate(-121.31 -19.29)"/><path d="M181.38,25.46V20.17c0-.33.06-.44.42-.44q1.38,0,2.76,0c.38,0,.47.08.47.47,0,3.42,0,6.83,0,10.25a1.4,1.4,0,0,0,2,1.37,1.38,1.38,0,0,0,.84-1.43c0-3.36,0-6.71,0-10.07,0-.53.15-.62.62-.59q1.34,0,2.67,0c.27,0,.36.06.36.35V30.54a3.59,3.59,0,0,1-3.18,3.77,9.49,9.49,0,0,1-3.68,0,3.6,3.6,0,0,1-3.18-3.83C181.38,28.82,181.38,27.15,181.38,25.46Z" transform="translate(-121.31 -19.29)"/><path d="M121.31,30.93c0-.51,0-1,0-1.52,1.16,0,2.35,0,3.51,0,.3,0,.33.12.33.36v.86A1.23,1.23,0,0,0,126,32a1.62,1.62,0,0,0,1.72-.38,1.7,1.7,0,0,0,0-1.84,3.26,3.26,0,0,0-1-.92c-.71-.42-1.46-.84-2.17-1.25a12.3,12.3,0,0,1-1.93-1.34c-1.9-1.45-1.81-5.64,1.31-6.56a8.57,8.57,0,0,1,4.84-.06A3.12,3.12,0,0,1,131.3,23c0,1,0,1-1,1h-2.25c-.27,0-.36-.08-.36-.32a2.9,2.9,0,0,0,0-.51,1.15,1.15,0,0,0-.92-1.3,1.39,1.39,0,0,0-1.55.53,1.43,1.43,0,0,0,.3,1.75,10.72,10.72,0,0,0,2.11,1.34,12.14,12.14,0,0,1,3,2,3.42,3.42,0,0,1,1,2.08,6.25,6.25,0,0,1-.09,2.11,3.53,3.53,0,0,1-2.91,2.88,8.5,8.5,0,0,1-4.42-.06A3.75,3.75,0,0,1,121.31,30.93Z" transform="translate(-121.31 -19.29)"/><path d="M139.76,21.27c-.62,4.13-1.25,8.26-1.84,12.39-.06.32-.15.44-.51.44-1,0-2,0-3.06,0-.32,0-.38-.09-.32-.41.86-4.55,1.69-9.09,2.52-13.64,0-.24.12-.32.39-.32h5.73c.27,0,.36.08.39.32l2.49,13.58c.06.35,0,.47-.38.44q-1.51,0-3,0c-.33,0-.42-.11-.45-.41q-.62-4.32-1.25-8.59l-.53-3.56A.21.21,0,0,0,139.76,21.27Z" transform="translate(-121.31 -19.29)"/><path d="M169.74,29.32h1.6c.24,0,.33.09.3.33s0,.62,0,1a1.27,1.27,0,0,0,.86,1.34,1.63,1.63,0,0,0,1.72-.39,1.74,1.74,0,0,0,.06-1.75A3.23,3.23,0,0,0,173,28.73c-.77-.45-1.54-.86-2.31-1.31-.42-.27-.84-.53-1.25-.83A3.85,3.85,0,0,1,168,22.4,3.44,3.44,0,0,1,171,19.67a8.74,8.74,0,0,1,4.13,0,3.18,3.18,0,0,1,2.65,3.44c0,.89,0,.89-.89.89h-2.32c-.3,0-.39-.09-.36-.35a2.9,2.9,0,0,0,0-.51,1.17,1.17,0,0,0-.95-1.25,1.28,1.28,0,0,0-1.51.57,1.4,1.4,0,0,0,.29,1.69,6.24,6.24,0,0,0,1.43.95c.83.45,1.63.89,2.43,1.37A4.33,4.33,0,0,1,178,31.25a3.48,3.48,0,0,1-2.7,3.09,8.27,8.27,0,0,1-4.6,0,3.64,3.64,0,0,1-2.92-3.77c0-1.19,0-1.19,1.16-1.19A2.58,2.58,0,0,1,169.74,29.32Z" transform="translate(-121.31 -19.29)"/></svg>