<svg id="Layer_1" data-name="Layer 1" xmlns="http://www.w3.org/2000/svg" viewBox="0 0 72 30">
  <defs>
    <style>
      .cls-1 {
        fill: #00c7fd;
      }

      .cls-2 {
        fill: #0068b5;
      }
    </style>
  </defs>
  <g>
    <rect class="cls-1" x="1.8" y="2.097" width="4.959" height="4.959"/>
    <path class="cls-2" d="M6.629,27.9V10.06H1.93V27.9Zm31.148.181V23.705a11.932,11.932,0,0,1-1.7-.109,1.955,1.955,0,0,1-1.1-.489,1.919,1.919,0,0,1-.489-1.066,10.967,10.967,0,0,1-.11-1.723V14.079h3.4V10.06h-3.4V3.111h-4.7V20.354a15.357,15.357,0,0,0,.376,3.678A5.108,5.108,0,0,0,31.3,26.4,5,5,0,0,0,33.6,27.685a13.768,13.768,0,0,0,3.584.394ZM64.71,27.9V1.735h-4.7V27.9ZM25.145,11.817A7.108,7.108,0,0,0,19.679,9.7a6.907,6.907,0,0,0-3.083.687,6.648,6.648,0,0,0-2.335,1.9l-.255.33,0-.3V10.06H9.369V27.9H14.04V18.4l0,.659c0-.109,0-.216,0-.321a5.355,5.355,0,0,1,1.239-3.7,4.054,4.054,0,0,1,2.983-1.268A3.8,3.8,0,0,1,21.346,15a5.247,5.247,0,0,1,1.022,3.419h0v.045h0V27.9h4.743V17.772A8.472,8.472,0,0,0,25.145,11.817Zm32.417,7.126a9.588,9.588,0,0,0-.678-3.607,9.264,9.264,0,0,0-1.892-2.945,8.645,8.645,0,0,0-2.907-1.979A9.576,9.576,0,0,0,48.353,9.7a9.077,9.077,0,0,0-3.622.732A9.235,9.235,0,0,0,39.8,15.357a9.087,9.087,0,0,0-.731,3.622,9.508,9.508,0,0,0,.7,3.625,8.826,8.826,0,0,0,4.907,4.924,9.872,9.872,0,0,0,3.823.732,10.124,10.124,0,0,0,7.936-3.5l-3.382-2.576a6.207,6.207,0,0,1-4.518,1.993,5.387,5.387,0,0,1-3.244-.911,4.529,4.529,0,0,1-1.7-2.477l-.047-.165H57.562ZM43.587,17.306c0-1.306,1.5-3.585,4.73-3.589S53.052,16,53.052,17.3Z"/>
    <path class="cls-2" d="M70.062,25.65a1.766,1.766,0,0,0-.926-.926,1.725,1.725,0,0,0-1.352,0,1.775,1.775,0,0,0-.926.926,1.725,1.725,0,0,0,0,1.352,1.785,1.785,0,0,0,.926.926,1.725,1.725,0,0,0,1.352,0A1.775,1.775,0,0,0,70.062,27a1.725,1.725,0,0,0,0-1.352Zm-.283,1.232a1.428,1.428,0,0,1-.762.763,1.439,1.439,0,0,1-1.113,0,1.434,1.434,0,0,1-.763-.763,1.439,1.439,0,0,1,0-1.113,1.428,1.428,0,0,1,.763-.762,1.439,1.439,0,0,1,1.113,0,1.422,1.422,0,0,1,.762.762,1.439,1.439,0,0,1,0,1.113Zm-.991-.416a.562.562,0,0,0,.338-.154.527.527,0,0,0,.134-.393.566.566,0,0,0-.171-.444.772.772,0,0,0-.531-.155h-.767v1.988h.365v-.814h.267l.5.814H69.3Zm-.2-.288c-.056,0-.112.007-.168.007h-.267v-.556h.267c.056,0,.112,0,.168,0a.477.477,0,0,1,.152.032.258.258,0,0,1,.11.085.3.3,0,0,1,0,.308.258.258,0,0,1-.11.085A.506.506,0,0,1,68.591,26.178Z"/>
  </g>
</svg>
